<svg xmlns="http://www.w3.org/2000/svg" width="62.5" height="90.5">
    <path fill="#06F" fill-rule="evenodd" stroke="#000" d="M37.641 76.03c-3.087 4.058-5.255 6.685-5.269 6.712a1.387 1.387 0 0 1-2.126 0c-.014-.027-2.168-2.654-5.269-6.712C16.073 64.312 1.131 42.87 1.131 30.973 1.131 14.29 14.673.715 31.316.715 47.958.715 61.5 14.29 61.5 30.973c0 11.897-14.955 33.339-23.859 45.057zm-17.212-1.488a321.648 321.648 0 0 0 2.369 3.162c2.528 3.306 4.446 5.688 5.075 6.47l.042.06.218.265a4.117 4.117 0 0 0 3.183 1.49c1.23 0 2.385-.543 3.168-1.49l.219-.265.009-.02c.632-.78 2.554-3.155 5.112-6.517a312.67 312.67 0 0 0 2.365-3.156c5.997 1.09 11.079 3.217 11.079 6.633 0 4.965-11.045 7.565-21.952 7.565-10.921 0-21.953-2.6-21.953-7.565 0-3.416 5.074-5.542 11.066-6.632z"/>
</svg>
