<svg xmlns="http://www.w3.org/2000/svg" width="65" height="92">
    <path fill="#4DBCE5" fill-rule="evenodd" d="M62.996 26.664c-.387 1.11-.945 2.196-1.145 3.362-.089.52-.149 1.124-.078 1.651.03.219.07.436.108.652.985 1.917 1.42 3.492 1.628 4.193.044.151.087.303.13.458-.822.631-1.38 1.528-1.841 2.27-.72 1.157-1.095 1.661-1.671 1.66-.576-.001-.95-.508-1.661-1.668-.798-1.297-1.891-3.077-4.184-3.082-2.291-.006-3.392 1.77-4.195 3.063-.72 1.157-1.095 1.661-1.67 1.66-.577-.001-.95-.507-1.664-1.667-.797-1.297-1.891-3.077-4.181-3.082-2.292-.005-3.393 1.77-4.197 3.064-.719 1.156-1.094 1.661-1.671 1.66-.575-.002-.95-.508-1.662-1.669-.798-1.296-1.892-3.077-4.182-3.082-2.291-.005-3.392 1.771-4.195 3.064-.719 1.157-1.094 1.661-1.671 1.66-.576-.001-.95-.507-1.662-1.667-.799-1.296-1.891-3.077-4.183-3.082-2.29-.005-3.392 1.77-4.196 3.063-.717 1.158-1.093 1.661-1.668 1.66-.577-.001-.949-.507-1.664-1.667-.797-1.296-1.89-3.077-4.181-3.082-2.291-.005-3.392 1.771-4.196 3.064-.719 1.157-1.095 1.661-1.671 1.66-.35-.001-.628-.19-.95-.598.261-1.389.582-2.661.924-3.798.212-.701.654-2.274 1.648-4.187.039-.217.08-.433.111-.652.072-.526.015-1.131-.072-1.651-.192-1.167-.746-2.254-1.127-3.367-.141-.416-1.081-2.898-1.324-3.786-.645-2.342-.803-4.992.061-8.146.505-1.837 1.843-3.523 3.404-4.661 3.066-2.239 7.241-1.769 8.588-1.5 3.778.758 5.944 3.555 6.638 4.416.289-1.115.319-1.866.325-1.967.007-.092.015-.258.023-.477.038-1.155-.149-4.635-.149-4.635-.191-.395-1.2-.649-1.649-.905-.822-.468-1.395-.951-1.359-2.342.027-1.017.618-2.049 1.597-2.137 4.37-.394 10.76-.392 14.348-.384 3.59.008 9.978.035 14.347.449.98.094 1.567 1.127 1.589 2.145.03 1.391-.545 1.869-1.369 2.334-.451.255-1.459.504-1.653.898 0 0-.203 3.48-.172 4.635.006.219.014.384.021.477.007.101.034.852.318 1.97.696-.86 2.877-3.647 6.66-4.387 1.346-.263 5.524-.714 8.58 1.539 1.556 1.145 2.886 2.838 3.381 4.677.851 3.157.677 5.806.023 8.146-.245.885-1.197 3.363-1.339 3.778zM16.415 17.65c-.031-.897-.387-1.763-.894-2.528-.178-.266-2.133-3.935-7.174-2.42-1.465.442-2.375 1.318-2.945 2.308.57-.989 1.48-1.865 2.944-2.307 5.041-1.515 6.996 2.154 7.174 2.42.507.765.863 1.63.894 2.528.019.017-.003.52-.04.943a8.077 8.077 0 0 1 .001-.001c.037-.424.058-.927.04-.943zm33.217-2.451c.178-.263 2.151-3.924 7.185-2.387-5.035-1.538-7.007 2.123-7.185 2.387zm-.872 3.468c-.035-.424-.053-.927-.037-.943-.016.016.001.519.036.943.784.896 3.572 3.283 8.53 7.724-4.958-4.441-7.746-6.828-8.529-7.724zm9.12 8.283c1.699-2.895 2.721-5.909 2.793-7.994-.072 2.085-1.094 5.098-2.793 7.994zM5.762 40.678c.719-1.154 1.093-1.662 1.67-1.661.576.002.948.511 1.662 1.669.797 1.298 1.89 3.074 4.182 3.079 2.291.005 3.391-1.766 4.196-3.06.718-1.155 1.092-1.663 1.669-1.662.576.002.951.512 1.662 1.669.798 1.299 1.891 3.074 4.183 3.079 2.291.005 3.393-1.765 4.197-3.059.717-1.155 1.092-1.663 1.668-1.662.577.002.948.511 1.663 1.669.799 1.298 1.892 3.074 4.182 3.079 2.291.005 3.393-1.765 4.197-3.06.718-1.154 1.093-1.662 1.669-1.661.577.002.948.511 1.663 1.67.797 1.298 1.89 3.073 4.182 3.078 2.291.006 3.392-1.765 4.196-3.059.719-1.155 1.093-1.663 1.669-1.662.578.001.95.511 1.663 1.669.797 1.298 1.892 3.074 4.182 3.079 2.291.005 3.393-1.764 4.197-3.059.048-.079.097-.155.142-.227.302 1.709.505 3.579.543 5.575-1.652.411-2.545 1.847-3.227 2.946-.718 1.155-1.093 1.662-1.669 1.661-.578-.001-.951-.51-1.662-1.669-.799-1.299-1.892-3.075-4.184-3.08-2.29-.006-3.392 1.765-4.195 3.06-.719 1.155-1.095 1.662-1.669 1.661-.578-.001-.951-.51-1.665-1.669-.796-1.298-1.89-3.075-4.181-3.08-2.29-.006-3.392 1.766-4.195 3.061-.719 1.155-1.095 1.662-1.671 1.661-.576-.001-.95-.51-1.663-1.67-.797-1.298-1.892-3.074-4.182-3.08-2.29-.005-3.393 1.768-4.194 3.062-.72 1.155-1.095 1.662-1.671 1.661-.576-.001-.95-.51-1.663-1.669-.798-1.298-1.891-3.075-4.183-3.08-2.29-.005-3.391 1.767-4.195 3.061-.718 1.155-1.094 1.662-1.669 1.661-.576-.001-.95-.51-1.664-1.669-.797-1.298-1.889-3.075-4.181-3.08-2.291-.006-3.391 1.767-4.196 3.061-.718 1.156-1.093 1.662-1.67 1.661-.519-.001-.872-.415-1.457-1.341a34.762 34.762 0 0 1 .066-5.814c.414.164.878.259 1.407.26 2.292.005 3.392-1.765 4.196-3.059zM5.74 50.53c.719-1.154 1.094-1.661 1.67-1.66.577.001.949.509 1.664 1.667.796 1.298 1.89 3.075 4.182 3.08 2.29.006 3.391-1.767 4.195-3.061.717-1.154 1.092-1.661 1.668-1.66.576.001.951.51 1.663 1.668.797 1.298 1.891 3.075 4.183 3.08 2.291.005 3.393-1.767 4.196-3.061.719-1.154 1.094-1.661 1.67-1.66.576.002.948.511 1.663 1.668.798 1.298 1.892 3.075 4.182 3.08 2.291.005 3.392-1.767 4.196-3.062.719-1.154 1.093-1.661 1.67-1.66.577.002.949.51 1.663 1.669.798 1.298 1.89 3.074 4.183 3.079 2.291.006 3.391-1.767 4.196-3.061.719-1.154 1.092-1.661 1.669-1.66.577.002.95.511 1.662 1.668.798 1.298 1.891 3.075 4.182 3.08 2.292.005 3.393-1.766 4.2-3.06.219-.355.407-.647.58-.888a32.42 32.42 0 0 1-1.031 5.763c-.051.182-.104.366-.161.551-.872.634-1.452 1.572-1.93 2.337-.72 1.156-1.095 1.664-1.671 1.663-.576-.001-.95-.511-1.661-1.67-.798-1.297-1.891-3.074-4.184-3.079-2.291-.005-3.392 1.767-4.195 3.06-.719 1.156-1.094 1.665-1.67 1.663-.576-.001-.95-.511-1.664-1.671-.797-1.297-1.891-3.073-4.181-3.078-2.292-.006-3.393 1.766-4.197 3.059-.719 1.156-1.094 1.664-1.671 1.663-.574-.002-.949-.511-1.662-1.67-.798-1.297-1.892-3.074-4.182-3.079-2.291-.005-3.392 1.766-4.195 3.059-.719 1.157-1.094 1.665-1.67 1.664-.577-.001-.951-.512-1.663-1.671-.799-1.297-1.891-3.073-4.183-3.079-2.29-.005-3.392 1.767-4.196 3.06-.717 1.155-1.093 1.663-1.668 1.662-.577-.002-.949-.511-1.664-1.67-.799-1.297-1.891-3.074-4.181-3.079-2.291-.005-3.392 1.766-4.196 3.059-.247.4-.454.718-.64.966-.617-1.351-1.11-2.649-1.436-3.863a31.184 31.184 0 0 1-.449-1.9c.269.062.559.094.868.095 2.292.005 3.393-1.767 4.196-3.061zm-.018 9.323c.719-1.154 1.093-1.662 1.67-1.661.576.001.948.511 1.662 1.669.797 1.3 1.89 3.077 4.183 3.083 2.291.005 3.391-1.768 4.196-3.063.717-1.155 1.091-1.663 1.668-1.662.576.001.951.511 1.662 1.669.798 1.299 1.892 3.078 4.183 3.083 2.292.005 3.393-1.768 4.197-3.064.717-1.154 1.092-1.662 1.669-1.661.576.002.948.511 1.662 1.67.8 1.3 1.892 3.077 4.182 3.082 2.291.006 3.393-1.767 4.197-3.063.718-1.154 1.093-1.662 1.669-1.661.577.001.948.511 1.663 1.669.798 1.298 1.89 3.077 4.182 3.082 2.291.005 3.392-1.767 4.197-3.064.718-1.154 1.092-1.662 1.668-1.661.578.002.95.512 1.663 1.67.797 1.299 1.892 3.078 4.182 3.083.147 0 .293-.011.431-.025-4.702 8.249-12.312 17.131-14.086 19.227-.705.834-1.415 1.659-2.117 2.488-.197.233-.539.668-.59.967-.145.854 1.33 1.282 2.568 2.704.347.4.676.878.949 1.467.458.998-.637 1.827-1.99 1.93-2.643.192-7.797.21-12.835.166-5.039.021-10.194-.019-12.834-.224-1.357-.109-2.445-.943-1.981-1.939a6.099 6.099 0 0 1 .954-1.463c1.245-1.418 2.722-1.839 2.581-2.693-.049-.3-.389-.736-.587-.97-.702-.834-1.41-1.663-2.11-2.5-1.825-2.176-9.858-11.635-14.465-20.13.778-.628 1.313-1.49 1.757-2.205z"/>
    <path fill="#FFF" fill-rule="evenodd" d="M3.746 18.707l1.614-3.66a6.5 6.5 0 1 1 11.894 5.246l-1.614 3.66a6.5 6.5 0 1 1-11.894-5.246zM50.16 23.711l-1.444-3.73a6.5 6.5 0 0 1 12.124-4.692l1.444 3.73a6.5 6.5 0 0 1-12.124 4.692z"/>
</svg>
