<svg xmlns="http://www.w3.org/2000/svg" width="46" height="46">
    <path fill="#093" fill-rule="evenodd" d="M22.999 45.997C10.318 45.997 0 35.728 0 23.104S10.318.21 22.999.21c12.682 0 22.999 10.27 22.999 22.894 0 12.624-10.317 22.893-22.999 22.893zm0-41.971c-10.568 0-19.165 8.558-19.165 19.078 0 10.518 8.597 19.077 19.165 19.077s19.166-8.559 19.166-19.077c0-10.52-8.598-19.078-19.166-19.078zm-2.478 28.057a1.912 1.912 0 0 1-1.355.559c-.49 0-.981-.186-1.355-.559l-7.666-7.631a1.9 1.9 0 0 1 0-2.697 1.922 1.922 0 0 1 2.71 0l6.311 6.282 13.978-13.913a1.92 1.92 0 0 1 2.71 0 1.901 1.901 0 0 1 0 2.697L20.521 32.083z"/>
</svg>
