<svg xmlns="http://www.w3.org/2000/svg" width="124" height="81">
    <path fill="#093" fill-rule="evenodd" d="M100.433 34.063c-2.486 0-4.872.396-7.06 1.09l-7.856-14.854 5.768-14.358h2.684c1.691 0 2.984-1.287 2.984-2.971 0-1.683-1.293-2.97-2.984-2.97h-19.39c-1.69 0-2.983 1.287-2.983 2.97 0 1.684 1.293 2.971 2.983 2.971h10.342l-4.773 11.586H38.383L43.554 0H23.567c-6.265 0-11.435 5.149-11.435 11.387v.693c0 6.239 5.17 11.388 11.435 11.388 1.691 0 2.983-1.287 2.983-2.971 0-1.683-1.292-2.97-2.983-2.97-2.983 0-5.469-2.476-5.469-5.447v-.693c0-2.97 2.486-5.446 5.469-5.446h12.032L27.246 34.36a23.046 23.046 0 0 0-3.679-.297C10.64 34.063 0 44.56 0 57.532 0 70.504 10.541 81 23.567 81c13.027 0 23.567-10.496 23.567-23.468 0-9.605-5.767-17.824-14.12-21.488l1.988-6.734 31.622 31.886c1.193 1.188 2.784 1.881 4.475 1.881h6.463C80.048 73.375 89.395 81 100.433 81 113.36 81 124 70.504 124 57.532s-10.64-23.469-23.567-23.469zM41.068 57.532c0 9.605-7.855 17.527-17.6 17.527-9.745 0-17.601-7.823-17.601-17.527 0-9.705 7.856-17.527 17.601-17.527.696 0 1.392 0 1.988.099L20.683 56.74c-.497 1.584.398 3.267 1.989 3.663.298.099.597.099.796.099 1.292 0 2.486-.792 2.883-2.178l4.873-16.537c5.867 2.971 9.844 8.912 9.844 15.745zm-3.58-34.064h40.273L66.127 52.283 37.488 23.468zM70.8 57.037c-.099-.099 0-.297 0-.297l11.734-29.113 5.37 10.1c-6.563 4.06-10.938 11.289-11.038 19.409h-5.867s-.099 0-.199-.099zm19.888-14.062l7.259 13.765v.297c-.099.099-.199.099-.298.099H82.832c.199-5.942 3.182-11.091 7.856-14.161zm9.745 32.084c-7.756 0-14.319-5.05-16.606-11.982h13.921c2.088 0 4.077-1.089 5.27-2.872 1.194-1.782 1.393-3.961.498-5.941L96.257 40.5c1.392-.297 2.784-.495 4.275-.495 9.646 0 17.601 7.822 17.601 17.527 0 9.704-8.054 17.527-17.7 17.527z"/>
</svg>
