<svg xmlns="http://www.w3.org/2000/svg" width="71" height="90">
    <path fill="#DEC732" fill-rule="evenodd" d="M63.028 89.506c-.019.006-.04.01-.059.015a11.28 11.28 0 0 1-.994.249c-.077.015-.157.024-.235.038-.282.051-.566.097-.856.127-.124.013-.25.015-.375.024-.211.015-.419.038-.633.041H16.5c-2.883 0-4.127-1.293-4.127-1.293L0 79.052h41.015a.11.11 0 0 1-.011-.01h.049c.338-.334 2.66-2.567 7.296-5.833a66.413 66.413 0 0 1 4.952-3.147c1.314-.699 2.531-1.387 3.913-1.655h.037a11.57 11.57 0 0 1 2.425-.267c6.197 0 11.228 4.866 11.316 10.902h.001l-.001.005.001.005v.017l.008.021c-.068 4.908-3.397 9.037-7.973 10.416zm-3.631-18.32c-4.46 0-8.116 3.517-8.103 7.869 0 .108.012.214.017.321.007.166.01.332.028.495.003.035.012.069.016.104.092.758.289 1.484.585 2.161.021.049.048.095.07.143.085.183.171.364.268.539.121.216.252.425.392.628l.009.015a8.156 8.156 0 0 0 6.718 3.482c4.465 0 8.084-3.528 8.102-7.888-.029-4.351-3.643-7.869-8.102-7.869zM40.533 18.282c-.362 1.836-1.291 3.447-2.234 5.19a83.775 83.775 0 0 1-4.259 6.568c-4.792 6.692-7.941 9.749-7.941 9.749V26.138c5.906-.001 10.693-4.816 10.692-10.754 0-5.937-4.787-10.75-10.692-10.751V0c8.194.079 14.795 6.78 14.796 15.019a15.21 15.21 0 0 1-.346 3.212l-.016.051zM34.12 42.401c1.864 0 2.928 2.995 2.928 3.747v32.899H15.113V46.684c0-.72.705-4.283 2.928-4.283H34.12zM17.86 30.04a83.775 83.775 0 0 1-4.259-6.568c-.943-1.743-1.872-3.354-2.234-5.19l-.016-.051a15.21 15.21 0 0 1-.346-3.212C11.006 6.78 17.607.079 25.801 0v4.633c-5.905.001-10.691 4.814-10.692 10.751-.001 5.938 4.786 10.753 10.692 10.754v13.651s-3.149-3.057-7.941-9.749z"/>
</svg>
