<svg xmlns="http://www.w3.org/2000/svg" width="68" height="87">
    <path fill="#DEC732" fill-rule="evenodd" d="M67.811 74.078a4.067 4.067 0 0 1-1.998 2.401l-.226.12a3.816 3.816 0 0 1-5.157-1.612l-9.387-17.933H24.459c-2.912 0-5.38-2.366-5.38-5.276V24.385a5.443 5.443 0 0 1 5.437-5.444 5.443 5.443 0 0 1 5.437 5.444v8.167h20.5a4.082 4.082 0 0 1 4.078 4.083 4.082 4.082 0 0 1-4.078 4.083h-20.5v5.445h21.444a5.187 5.187 0 0 1 4.589 2.776l11.545 22.025c.503.961.601 2.08.28 3.114zM24.687 16.224c-4.474 0-8.101-3.631-8.101-8.112 0-4.48 3.627-8.112 8.101-8.112 4.474 0 8.102 3.632 8.102 8.112 0 4.481-3.628 8.112-8.102 8.112zM8.151 59.681c0 10.559 8.59 19.15 19.135 19.15 10.513 0 19.062-8.166 19.117-19.055h3.001l4.021 7.687c-3.349 11.295-13.78 19.535-26.144 19.535-15.066 0-27.286-12.231-27.286-27.317 0-11.205 5.494-20.819 16.368-25.033v9.321c-5.437 3.462-8.212 9.209-8.212 15.712z"/>
</svg>
