<svg xmlns="http://www.w3.org/2000/svg" width="46" height="46">
    <path fill="#DF1F33" fill-rule="evenodd" d="M22.999 45.997C10.318 45.997 0 35.728 0 23.104S10.318.21 22.999.21c12.682 0 22.999 10.27 22.999 22.894 0 12.624-10.317 22.893-22.999 22.893zm0-41.971c-10.568 0-19.165 8.558-19.165 19.078 0 10.518 8.597 19.077 19.165 19.077s19.166-8.559 19.166-19.077c0-10.52-8.598-19.078-19.166-19.078z"/>
    <path fill="#DF1F33" fill-rule="evenodd" d="M12.754 13.24a2 2 0 0 1 2.828.002l17.666 17.689a2 2 0 1 1-2.83 2.827L12.752 16.069a2 2 0 0 1 .002-2.829z"/>
    <path fill="#DF1F33" fill-rule="evenodd" d="M33.438 13.575a2.031 2.031 0 0 1-.001 2.873l-17.97 17.947a2.032 2.032 0 0 1-2.872-2.875l17.97-17.947a2.031 2.031 0 0 1 2.873.002z"/>
</svg>
