<svg xmlns="http://www.w3.org/2000/svg" width="135" height="82">
    <path fill="#DEC732" fill-rule="evenodd" d="M133.968 68.966c-.774-1.035-20.121-24.772-62.255-38.842v-4.057c0-4.92 9.545-6.214 9.545-15.278C81.344 3.712 74.723 0 68.618 0c-7.395 0-11.436 4.575-11.436 4.575-1.032 1.035-2.236 3.539-.602 5.955 1.719 2.417 4.987 1.295 5.847.518 0 0 2.579-2.33 5.245-2.33 2.064 0 3.955 1.381 3.955 3.28 0 4.661-8.512 5.956-8.512 13.379v4.833C20.981 44.194 1.72 67.931.946 68.966c-.774.95-1.118 2.245-.86 3.453a4.238 4.238 0 0 0 2.15 2.848C11.35 80.274 43.94 82 68.962 82c11.694 0 50.732-.432 63.716-6.56 1.204-.518 1.892-1.64 2.236-2.848.258-1.209-.086-2.59-.946-3.626zm-65.006 4.575c-24.077 0-46.347-1.554-57.182-3.884 7.653-7.51 25.796-22.529 55.72-32.023 29.924 9.581 47.981 24.513 55.72 32.023-10.663 2.417-30.698 3.884-54.258 3.884z"/>
</svg>
