<svg xmlns="http://www.w3.org/2000/svg" width="62.5" height="90.5">
    <path fill="#E90081" fill-rule="evenodd" stroke="#000" d="M37.641 76.489c-3.087 4.057-5.255 6.684-5.269 6.712a1.387 1.387 0 0 1-2.126 0c-.014-.028-2.168-2.655-5.269-6.712C16.073 64.771 1.131 43.328 1.131 31.431c0-16.683 13.542-30.258 30.185-30.258 16.642 0 30.184 13.575 30.184 30.258 0 11.897-14.955 33.34-23.859 45.058zM20.429 75a310.41 310.41 0 0 0 2.369 3.163 323.852 323.852 0 0 0 5.075 6.469l.042.061.218.265a4.117 4.117 0 0 0 3.183 1.489c1.23 0 2.385-.542 3.168-1.489l.219-.265.009-.02c.632-.78 2.554-3.155 5.112-6.517.779-1.026 1.57-2.083 2.365-3.156 5.997 1.09 11.079 3.216 11.079 6.633 0 4.965-11.045 7.564-21.952 7.564-10.921 0-21.953-2.599-21.953-7.564 0-3.416 5.074-5.543 11.066-6.633z"/>
</svg>
