<svg xmlns="http://www.w3.org/2000/svg" width="97" height="97">
    <path fill="#DF1F33" fill-rule="evenodd" d="M40.372 60.178a21.12 21.12 0 0 1 3.644-2.897l11.572 11.571c-.234.008-.464.034-.701.034-5.565 0-10.646-2.177-14.516-6.047a1.899 1.899 0 0 1 .001-2.661zm21.29-25.886c0 .968.968 1.936 1.936 1.936 5.564 0 10.646-2.177 14.517-6.048 3.87-3.87 6.048-8.95 6.048-14.515 0-.967-.726-1.935-1.936-1.935-5.564 0-10.646 2.177-14.516 6.047-3.871 3.871-6.049 8.951-6.049 14.515zM35.048 57.517c.484.242.968.484 1.452.484s.968-.242 1.209-.484a20.329 20.329 0 0 0 2.883-3.658L29.091 42.36c-.168 5.473 1.803 11.003 5.957 15.157zm34.84-3.63c5.565 0 10.646-2.177 14.517-6.047a1.9 1.9 0 0 0 0-2.661c-3.871-3.87-8.952-6.047-14.517-6.047-4.811 0-9.257 1.634-12.876 4.575l9.952 9.951c.959.137 1.93.229 2.924.229zM50.049 13.488c-4.752 4.751-6.652 11.301-5.747 17.509l9.878 9.877c6.475-8.041 5.989-19.929-1.469-27.386a1.899 1.899 0 0 0-2.662 0zM20.291 43.244c-3.871 3.87-6.048 8.95-6.048 14.515 0 5.565 2.177 10.645 6.048 14.515.242.242.726.484 1.209.484.484 0 .968-.242 1.21-.484 8.226-7.983 8.226-21.046.242-29.03a1.898 1.898 0 0 0-2.661 0zm5.321 34.352c3.871 3.87 8.951 6.047 14.517 6.047 5.565 0 10.646-2.177 14.516-6.047a1.898 1.898 0 0 0 0-2.661c-3.87-3.871-9.193-6.048-14.516-6.048-5.565 0-10.646 2.177-14.517 6.048a1.898 1.898 0 0 0 0 2.661zm62.715-56.797c-.777 3.739-2.413 7.237-4.787 10.288 6.583 13.286 5.162 29.538-4.254 41.535L24.361 17.703a39.056 39.056 0 0 1 24.143-8.344 39.172 39.172 0 0 1 18.655 4.733c3.036-2.281 6.492-3.855 10.184-4.581C58.354-4.552 31.377-3.037 14.178 14.162-3.327 31.665-4.607 59.298 10.266 78.327l5.502-5.502a10.25 10.25 0 0 1 1.298-1.091C6.65 57.665 6.867 38.181 17.723 24.348l54.919 54.914c-13.503 10.594-32.395 11.066-46.376 1.402a10.067 10.067 0 0 1-1.197 1.469l-5.434 5.303A48.436 48.436 0 0 0 48.504 97c12.432 0 24.862-4.731 34.326-14.194 16.854-16.852 18.659-43.094 5.497-62.007zM20.773 77.112a1.898 1.898 0 0 0-2.661 0l-7.741 7.741a1.897 1.897 0 0 0 0 2.66c.242.242.725.484 1.209.484.484 0 .968-.242 1.21-.484l7.983-7.74a1.898 1.898 0 0 0 0-2.661z"/>
</svg>
