<svg xmlns="http://www.w3.org/2000/svg" width="117" height="78">
    <path fill="#4DBCE5" fill-rule="evenodd" d="M104.827 28.938s-12.172-6.316-12.172-16.759C92.655 5.452 98.105 0 104.827 0c6.723 0 12.172 5.452 12.172 12.179 0 10.291-12.172 16.759-12.172 16.759zm0-23.982a7.189 7.189 0 0 0-7.187 7.191 7.189 7.189 0 0 0 7.187 7.191 7.189 7.189 0 0 0 7.187-7.191 7.189 7.189 0 0 0-7.187-7.191zm.182 28.494a.672.672 0 0 1 .006 1.343l-6.027.274c-1.913.113-4.233.216-6.893.412-2.659.178-5.657.403-8.907.74-3.248.329-6.765.741-10.384 1.414-1.801.345-3.648.733-5.395 1.295-.881.265-1.731.591-2.479.958-.77.347-1.369.835-1.591 1.124.004.06-.069.109-.057.13.055.018-.01-.008.036.001.034-.024.02.04.142.242.197.39.724 1.045 1.392 1.637 1.302 1.22 3.02 2.395 4.754 3.542 3.515 2.319 7.335 4.48 11.128 7.255.951.726 1.902 1.447 2.851 2.362.94.919 1.915 1.875 2.766 3.487.411.803.79 1.791.875 3.024.078.572-.047 1.263-.144 1.882-.128.619-.396 1.177-.656 1.741-1.199 2.065-2.635 2.901-3.887 3.716-2.497 1.381-4.762 2.06-6.983 2.665-2.225.612-4.373 1.032-6.489 1.431-4.219.756-8.255 1.247-12.083 1.674-3.821.401-7.429.723-10.751.965-6.65.507-12.175.773-16.044.963l-6.076.264a6.238 6.238 0 0 1-6.501-6.456 6.236 6.236 0 0 1 6.454-6.011l.047.001 5.985.215c3.805.114 9.247.283 15.746.303 6.489.012 14.094-.037 21.971-.776 1.949-.209 3.935-.439 5.829-.803 1.896-.335 3.795-.824 5.141-1.433.312-.149.578-.32.754-.429-.212-.383-.609-.903-1.051-1.39-.574-.663-1.322-1.337-2.064-2.004-3.091-2.674-6.735-5.159-10.234-7.877-1.756-1.385-3.509-2.758-5.171-4.569-.819-.901-1.664-1.903-2.283-3.44-.301-.748-.509-1.74-.362-2.795.036-.514.271-1.005.455-1.482.216-.45.507-.787.786-1.158.567-.597 1.191-1.108 1.757-1.405.589-.375 1.144-.599 1.697-.825a20.816 20.816 0 0 1 3.196-.959c2.071-.485 4.052-.733 5.976-.947 3.844-.403 7.441-.534 10.758-.607 3.315-.081 6.346-.067 9.029-.034 2.683.016 5.023.097 6.948.136l6.033.204zM79.684 63.026c.028.14.063.074-.001-.102l-.011-.025c.009.058.024.11.012.127zm-57.265-4.381S0 47.013 0 27.779C0 15.39 10.037 5.347 22.419 5.347c12.381 0 22.419 10.043 22.419 22.432 0 18.953-22.419 30.866-22.419 30.866zM35.656 27.72c0-7.315-5.927-13.245-13.237-13.245-7.311 0-13.237 5.93-13.237 13.245 0 7.315 5.926 13.245 13.237 13.245 7.31 0 13.237-5.93 13.237-13.245z"/>
</svg>
