<svg xmlns="http://www.w3.org/2000/svg" width="62.5" height="90.5">
    <path fill="#EF8F99" fill-rule="evenodd" stroke="#000" d="M37.009 76.489c-3.087 4.057-5.255 6.684-5.268 6.712a1.39 1.39 0 0 1-2.127 0c-.014-.028-2.168-2.655-5.268-6.712C15.441 64.771.5 43.328.5 31.431.5 14.748 14.042 1.173 30.684 1.173c16.643 0 30.185 13.575 30.185 30.258 0 11.897-14.955 33.34-23.86 45.058zM19.797 75a325.968 325.968 0 0 0 2.369 3.163 322.379 322.379 0 0 0 5.076 6.469l.041.061.219.265a4.114 4.114 0 0 0 3.182 1.489 4.1 4.1 0 0 0 3.169-1.489l.218-.265.01-.02a268.7 268.7 0 0 0 5.111-6.517c.78-1.026 1.571-2.083 2.366-3.156 5.996 1.09 11.079 3.216 11.079 6.633 0 4.965-11.045 7.564-21.953 7.564-10.921 0-21.952-2.599-21.952-7.564 0-3.416 5.073-5.543 11.065-6.633z"/>
</svg>
