<svg xmlns="http://www.w3.org/2000/svg" width="131" height="94">
    <path fill="#093" fill-rule="evenodd" d="M126.172 1.138c-9.198 2.881-13.174 15.448-13.174 37.853 0 12.054 7.666 5.064 6.808 13.833l-3.153 32.215c-.318 3.25 1.55 5.961 6.046 5.961 4.087 0 5.29-2.846 5.29-5.961L128 2.623c0-1.696-.836-1.796-1.828-1.485zM19.304 10.722c-.11-1.086-.67-1.721-1.705-1.721-1.039 0-1.709.675-1.709 1.721l.001 15.912c0 1.105-.706 1.817-1.801 1.817h-.083c-1.094 0-1.801-.712-1.801-1.817V10.723c0-1.045-.67-1.721-1.707-1.721-1.038 0-1.708.675-1.707 1.721l-.001 15.911c0 1.105-.706 1.817-1.801 1.817h-.082c-1.094 0-1.8-.712-1.8-1.817V10.722c0-1.045-.67-1.721-1.708-1.722-1.036 0-1.595.636-1.706 1.722L.059 29.727c-.445 5.168 1.628 9.368 6.455 10.523.564.135 1.015.493.97 1.252L5.078 82.618C4.872 86.122 6.902 88 10.5 88c3.597 0 5.624-1.876 5.421-5.381L13.517 41.5c-.044-.759.407-1.117.97-1.251 4.826-1.155 6.899-5.355 6.454-10.522l-1.637-19.005z"/>
    <path fill="none" fill-rule="evenodd" stroke="#093" stroke-width="6" d="M65.092 18.152c15.984 0 28.941 12.957 28.941 28.94 0 15.984-12.957 28.941-28.941 28.941-15.983 0-28.94-12.957-28.94-28.941 0-15.983 12.957-28.94 28.94-28.94zM43.489 44.239c0-10.355 8.395-18.75 18.75-18.75"/>
    <path fill="none" fill-rule="evenodd" stroke="#093" stroke-width="6" d="M65.5 10C86.211 10 103 26.789 103 47.5S86.211 85 65.5 85 28 68.211 28 47.5 44.789 10 65.5 10z"/>
</svg>
