<svg xmlns="http://www.w3.org/2000/svg" width="85" height="83">
    <path fill="#093" fill-rule="evenodd" d="M58 83V33.731l27-9.736v49.269L58 83zm.7-65.79c-.1.491-.2.885-.3 1.278-2.4 7.867-11 17.505-13.9 20.652-3.5-3.836-11.6-13.178-13.9-20.75-.1-.492-.3-.984-.3-1.377-.2-.983-.3-1.967-.3-2.754C30 6.392 36.5 0 44.5 0S59 6.392 59 14.259c0 .787-.1 1.672-.3 2.754v.197zM44.5 7.67c-3.6 0-6.5 2.852-6.5 6.393 0 3.54 2.9 6.392 6.5 6.392s6.5-2.852 6.5-6.392c0-3.541-2.9-6.393-6.5-6.393zm-.4 33.83c.1.098.3.197.4.197.1 0 .3-.099.4-.197.3-.197 3.9-4.032 7.7-8.949l3.4 1.18V83l-27-9.736V23.995l2.3.787c4.6 8.261 12.4 16.226 12.8 16.718zM0 33.731l27-9.736v49.269L0 83V33.731z"/>
</svg>
