<svg xmlns="http://www.w3.org/2000/svg" width="62.5" height="90.5">
    <path fill="#7FCC99" fill-rule="evenodd" stroke="#000" d="M37.394 75.816c-3.037 4.057-5.17 6.684-5.184 6.711a1.346 1.346 0 0 1-1.039.496c-.405 0-.796-.179-1.053-.496-.013-.027-2.133-2.654-5.183-6.711C16.174 64.097 1.473 42.655 1.473 30.758 1.473 14.075 14.797.5 31.171.5c16.374 0 29.698 13.575 29.698 30.258 0 11.897-14.714 33.339-23.475 45.058zm-16.935-1.489a317.462 317.462 0 0 0 2.332 3.162 320.022 320.022 0 0 0 4.993 6.47l.041.061.215.264a4.023 4.023 0 0 0 6.249 0l.214-.264.01-.02a269.99 269.99 0 0 0 7.356-9.674c5.9 1.09 10.9 3.217 10.9 6.633 0 4.966-10.866 7.565-21.598 7.565-10.745 0-21.598-2.599-21.598-7.565 0-3.415 4.991-5.542 10.886-6.632z"/>
</svg>
