<svg xmlns="http://www.w3.org/2000/svg" width="60" height="87">
    <path fill="#DF1F33" fill-rule="evenodd" d="M19.443 48.241l3.24-9.899-8.362-6.043c-.628-.416-.732-1.354-.314-1.875.314-.417.732-.625 1.15-.625h10.348l3.241-9.794c.209-.73.94-1.146 1.672-.938.418.208.732.521.836.938l3.241 9.794h10.348c.836 0 1.359.625 1.359 1.354 0 .521-.209.834-.523 1.146l-8.466 6.043 3.24 9.899c.314.729-.105 1.458-.836 1.667a1.116 1.116 0 0 1-1.255-.209L30 43.656l-8.467 6.043c-.523.417-1.359.313-1.881-.312-.209-.313-.314-.73-.209-1.146zM51.847 0H8.153C5.958 0 3.868.938 2.404 2.396.941 3.855 0 5.939 0 8.127v76.164a2.8 2.8 0 0 0 .523 1.563c.94 1.25 2.613 1.458 3.867.521L30 67.204 55.401 86.27c.522.417 1.149.73 1.881.73C58.746 87 60 85.75 60 84.291V8.127a7.792 7.792 0 0 0-2.3-5.522l-.104-.209C56.132.938 54.042 0 51.847 0z"/>
</svg>
