<svg xmlns="http://www.w3.org/2000/svg" width="62.5" height="90.5">
    <path fill="#A0D7EB" fill-rule="evenodd" stroke="#000" d="M37.009 76.03c-3.087 4.058-5.255 6.685-5.268 6.712a1.39 1.39 0 0 1-2.127 0c-.014-.027-2.168-2.654-5.268-6.712C15.441 64.312.5 42.87.5 30.973.5 14.29 14.042.715 30.684.715c16.643 0 30.185 13.575 30.185 30.258 0 11.897-14.955 33.339-23.86 45.057zm-17.212-1.488a338.388 338.388 0 0 0 2.369 3.162 323.642 323.642 0 0 0 5.076 6.47l.041.06.219.265a4.115 4.115 0 0 0 3.182 1.49c1.23 0 2.385-.543 3.169-1.49l.218-.265.01-.02a268.7 268.7 0 0 0 5.111-6.517c.78-1.025 1.571-2.082 2.366-3.156 5.996 1.09 11.079 3.217 11.079 6.633 0 4.965-11.045 7.565-21.953 7.565-10.921 0-21.952-2.6-21.952-7.565 0-3.416 5.073-5.542 11.065-6.632z"/>
</svg>
