<svg xmlns="http://www.w3.org/2000/svg" width="61.5" height="90.5">
    <path fill="#4E9A01" fill-rule="evenodd" stroke="#000" d="M37.026 75.816c-3.038 4.057-5.17 6.684-5.184 6.711a1.348 1.348 0 0 1-2.092 0c-.014-.027-2.133-2.654-5.184-6.711C15.805 64.097 1.105 42.655 1.105 30.758 1.105 14.075 14.428.5 30.803.5 47.177.5 60.5 14.075 60.5 30.758c0 11.897-14.713 33.339-23.474 45.058zm-16.935-1.489a317.562 317.562 0 0 0 2.331 3.162 318.555 318.555 0 0 0 4.994 6.47l.041.061.215.264a4.022 4.022 0 0 0 6.248 0l.215-.264.009-.02c.622-.781 2.513-3.155 5.029-6.517a328.523 328.523 0 0 0 2.328-3.157c5.899 1.09 10.9 3.217 10.9 6.633 0 4.966-10.867 7.565-21.598 7.565-10.745 0-21.599-2.599-21.599-7.565 0-3.415 4.992-5.542 10.887-6.632z"/>
</svg>
